Coordinates
version=1
nRows=6
nColumns=36
inDegrees=yes

Units are S.I. units (second, meters, Newtons, ...)
If the header above contains a line with 'inDegrees', this indicates whether rotational values are in degrees (yes) or radians (no).

endheader
time	pelvis_tilt	pelvis_list	pelvis_rotation	pelvis_tx	pelvis_ty	pelvis_tz	hip_flexion_r	hip_adduction_r	hip_rotation_r	knee_angle_r	knee_angle_r_beta	ankle_angle_r	subtalar_angle_r	mtp_angle_r	hip_flexion_l	hip_adduction_l	hip_rotation_l	knee_angle_l	knee_angle_l_beta	ankle_angle_l	subtalar_angle_l	mtp_angle_l	lumbar_extension	lumbar_bending	lumbar_rotation	arm_flex_r	arm_add_r	arm_rot_r	elbow_flex_r	pro_sup_r	arm_flex_l	arm_add_l	arm_rot_l	elbow_flex_l	pro_sup_l
      0.00000000	     -6.76999827	      0.07367177	    175.81571204	      0.49393893	      1.10204805	      0.71647262	     20.51299409	     -4.87621052	      2.79479635	     59.79102241	      1.04355020	    -15.21117607	    -29.26904217	     -7.88203240	     -4.67269538	      2.59366781	     -1.48701750	     10.12781512	      0.17676372	      6.43829781	     -7.12796751	     -7.88203240	    -25.34154040	     -1.91718333	      1.39876040	      6.00069389	    -11.92350453	     -3.49710163	     28.72128483	    105.20046728	     20.76538866	    -15.51709832	     -0.62804509	     29.46135258	    104.25084748
      0.01666670	     -5.95569499	     -0.08706539	    175.88359849	      0.49595070	      1.10066316	      0.71642864	     21.79606765	     -4.28174901	      3.41770237	     54.61679416	      0.95324288	    -13.95390617	    -28.56999811	     -7.82678180	     -5.10973986	      2.70400271	     -0.53481656	      9.46252292	      0.16515218	      4.75659465	     -7.47094923	     -7.82678180	    -24.10061744	     -2.41316165	      1.18554650	      4.86916688	    -11.86970367	     -0.95797273	     29.40155162	    105.75377374	     21.69228848	    -15.96806567	      1.53194666	     28.72615485	    104.52560232
      0.03333330	     -4.91009979	     -0.09483089	    176.32464181	      0.49658779	      1.09928022	      0.71586888	     22.30289680	     -4.31892164	      3.00851520	     47.31077957	      0.82572888	    -13.84742059	    -28.36445897	     -7.82416754	     -5.18908344	      2.53916109	     -0.50397658	      8.99061146	      0.15691577	      3.72702686	     -6.53951802	     -7.82416754	    -22.82903554	     -2.39024954	      0.79926589	      3.94411243	    -11.43906658	     -0.75290640	     29.46073256	    106.09957414	     22.21429701	    -16.34852057	      1.76246878	     28.80926833	    104.74899873
      0.05000000	     -4.18788357	     -0.56578350	    177.14676282	      0.49736120	      1.10051574	      0.71420619	     21.70693882	     -4.90901768	      2.08250966	     39.23712054	      0.68481694	    -12.44607353	    -27.81074465	     -7.81232403	     -5.13633994	      2.70049789	      0.08510919	      9.19472899	      0.16047829	      4.31091031	     -4.57183117	     -7.81232403	    -22.24167310	     -2.86431650	      0.35079875	      3.02078910	    -11.09168181	     -0.34832824	     29.52170756	    107.64878274	     23.74317234	    -16.94104001	      4.09097170	     28.50965010	    105.54056182
      0.06666670	     -2.90809598	     -1.43418003	    177.58835024	      0.49780494	      1.10260215	      0.71172633	     21.45446586	     -5.82597209	      1.51728002	     31.54871842	      0.55062901	    -11.42492335	    -26.20407635	     -7.77519622	     -3.88346700	      3.12369147	      0.85037014	     10.26677017	      0.17918894	      5.05703782	     -2.76622490	     -7.77519622	    -21.30982509	     -3.70705983	     -0.37971510	      2.51838135	    -10.49060342	     -0.13769598	     29.32841451	    107.28111523	     23.88760238	    -17.52585167	      4.17001126	     29.87997215	    104.36222106
      0.08333330	     -1.67717892	     -2.31843078	    177.49148499	      0.49754059	      1.10298172	      0.70951928	     21.28438681	     -6.54826103	      1.38045870	     24.96212813	      0.43567132	    -10.52643686	    -23.75268561	     -7.74588352	     -2.70117692	      3.58601050	      1.64454394	     11.38057096	      0.19862843	      6.05633138	     -1.45434908	     -7.74588352	    -20.23057674	     -4.75163859	     -0.72855796	      2.29551699	    -10.04849532	      0.40703263	     28.79284115	    106.56630688	     23.67735807	    -17.84098371	      3.00713206	     31.41895064	    103.24288453
